<?xml version="1.0" encoding="UTF-8"?>
<svg version="1.1" xmlns="http://www.w3.org/2000/svg" width="1046" height="253">
<path d="M0 0 C336.27 0 672.54 0 1019 0 C1019.33 0.66 1019.66 1.32 1020 2 C1019.34 2 1018.68 2 1018 2 C1017.96132812 3.12148437 1017.96132812 3.12148437 1017.921875 4.265625 C1017.45221692 12.42059707 1017.45221692 12.42059707 1015 15.5625 C1014.34 16.036875 1013.68 16.51125 1013 17 C1012.67 17.66 1012.34 18.32 1012 19 C1011.34 19 1010.68 19 1010 19 C1010.61488281 20.17755859 1010.61488281 20.17755859 1011.2421875 21.37890625 C1014.06399564 26.88075706 1016.53002085 31.99758514 1018 38 C1018.37125 38.928125 1018.7425 39.85625 1019.125 40.8125 C1020 43 1020 43 1020 45 C1020.48919922 46.86011719 1020.48919922 46.86011719 1020.98828125 48.7578125 C1022.42488504 55.10017098 1022.25298077 61.40274313 1022.1875 67.875 C1022.18685547 69.07769531 1022.18621094 70.28039062 1022.18554688 71.51953125 C1022.15395461 77.9854154 1021.88211536 84.28854061 1021.0168457 90.69970703 C1020.99734691 93.36228169 1021.7051892 94.71094311 1023 97 C1023.24636612 99.70017269 1023.09065666 102.28030006 1023 105 C1023.99 105.33 1024.98 105.66 1026 106 C1026.07654536 110.51617599 1026.10228696 114.59085217 1025 119 C1024.34 119 1023.68 119 1023 119 C1023 121.64 1023 124.28 1023 127 C1023.66 127 1024.32 127 1025 127 C1025.12117188 127.85464844 1025.24234375 128.70929688 1025.3671875 129.58984375 C1025.53476563 130.69457031 1025.70234375 131.79929688 1025.875 132.9375 C1026.03742188 134.03964844 1026.19984375 135.14179688 1026.3671875 136.27734375 C1026.57601563 137.17582031 1026.78484375 138.07429687 1027 139 C1027.66 139.33 1028.32 139.66 1029 140 C1029.37890625 141.8203125 1029.37890625 141.8203125 1029.5625 144.125 C1029.82380728 147.10390296 1030.15501743 149.97660983 1030.625 152.9375 C1031 156 1031 156 1030 158 C1029.01 158 1028.02 158 1027 158 C1026.67 160.31 1026.34 162.62 1026 165 C1025.01 165.33 1024.02 165.66 1023 166 C1022.938125 167.216875 1022.87625 168.43375 1022.8125 169.6875 C1022.38193023 173.20069974 1021.95423565 174.0578076 1019.625 177 C1017 179 1017 179 1014 179 C1013.67 182.96 1013.34 186.92 1013 191 C1014.32 191 1015.64 191 1017 191 C1017.268125 191.680625 1017.53625 192.36125 1017.8125 193.0625 C1019.79711212 198.93695585 1019.79711212 198.93695585 1023 204 C1022.73784402 206.35940386 1022.39385754 208.66048624 1022 211 C1021.82984375 212.03382813 1021.6596875 213.06765625 1021.484375 214.1328125 C1020.99508894 217.08949826 1020.49976644 220.04507026 1020 223 C1017 223 1017 223 1014 221 C1014 220.34 1014 219.68 1014 219 C1005.96243858 219.57411153 1000.36554036 222.10343049 994 227 C993.34 227 992.68 227 992 227 C992 227.99 992 228.98 992 230 C990.29196692 230.73679858 988.58334877 231.47228553 986.87109375 232.19921875 C985.36456306 232.84397614 983.86803509 233.51207936 982.375 234.1875 C979.77986487 235.07530939 977.72361231 235.15563499 975 235 C974.67 236.65 974.34 238.3 974 240 C972.35 240.33 970.7 240.66 969 241 C968.67 242.32 968.34 243.64 968 245 C966.68 245.33 965.36 245.66 964 246 C964 246.99 964 247.98 964 249 C963.360625 249.28875 962.72125 249.5775 962.0625 249.875 C959.84793921 250.82823451 959.84793921 250.82823451 959 253 C956.29139335 253.05429278 953.58389099 253.09381211 950.875 253.125 C950.11445312 253.14175781 949.35390625 253.15851563 948.5703125 253.17578125 C943.95979803 253.21552706 940.33977599 252.75423826 936 251 C935.236875 250.71125 934.47375 250.4225 933.6875 250.125 C932 249 932 249 931.25 246.875 C931.12625 245.946875 931.12625 245.946875 931 245 C930.33613281 245.17402344 929.67226563 245.34804687 928.98828125 245.52734375 C925.32402574 246.1069188 921.85991953 245.8682421 918.1875 245.5625 C917.49462891 245.51029297 916.80175781 245.45808594 916.08789062 245.40429688 C914.39145563 245.27560181 912.69565137 245.13863816 911 245 C910.67 244.01 910.34 243.02 910 242 C909.34 241.67 908.68 241.34 908 241 C908 240.01 908 239.02 908 238 C904.37 238 900.74 238 897 238 C896.67 237.01 896.34 236.02 896 235 C894.515 235.10441406 894.515 235.10441406 893 235.2109375 C880.99341456 235.79803428 880.99341456 235.79803428 876.625 232.125 C876.03203125 231.57714844 875.4390625 231.02929688 874.828125 230.46484375 C871.63826151 227.90886339 867.95326803 227.56378221 864 227 C863.06800781 226.82082031 862.13601563 226.64164063 861.17578125 226.45703125 C857.67036867 225.95256228 854.35187375 225.93930334 850.8125 226 C844.33130699 226.11043566 844.33130699 226.11043566 841 225 C841 224.34 841 223.68 841 223 C836.05 223 831.1 223 826 223 C825.67 223.99 825.34 224.98 825 226 C824.01 226.33 823.02 226.66 822 227 C821.67 227.66 821.34 228.32 821 229 C818.09740189 230.3749149 816.23861295 231 813 231 C813 231.66 813 232.32 813 233 C811.989375 233.103125 810.97875 233.20625 809.9375 233.3125 C805.87591604 234.02166545 802.77397782 235.37328542 799 237 C796.61511397 237.56524896 794.23315565 238.04325196 791.8203125 238.47265625 C791.21960938 238.64667969 790.61890625 238.82070312 790 239 C789.67 239.66 789.34 240.32 789 241 C786 241 786 241 783.8125 239.125 C782 237 782 237 782 235 C781.071875 234.855625 780.14375 234.71125 779.1875 234.5625 C776 234 776 234 773 233 C772.67 232.01 772.34 231.02 772 230 C771.34 229.67 770.68 229.34 770 229 C770 228.34 770 227.68 770 227 C769.01 227 768.02 227 767 227 C766.67 227.99 766.34 228.98 766 230 C763.69 230.33 761.38 230.66 759 231 C758.84724609 231.91072266 758.84724609 231.91072266 758.69140625 232.83984375 C757.51088814 236.52812916 754.21606969 238.16491188 751 240 C749.06038334 240.81440294 747.11295421 241.50400745 745.1171875 242.16796875 C741.87005492 243.44405591 739.00732913 245.32622932 736.078125 247.20703125 C734 248 734 248 732.05078125 247.16796875 C731.37402344 246.78253906 730.69726562 246.39710938 730 246 C727.44356887 245.64460357 724.9153699 245.49866887 722.33984375 245.34375 C720 245 720 245 717 243 C708.5587868 240.33435372 701.15406902 240.5502437 692.5 242.1875 C684.90220831 243.45977172 679.63925147 241.81962574 672.875 238.4375 C672.25625 237.963125 671.6375 237.48875 671 237 C671 236.34 671 235.68 671 235 C669.68 235 668.36 235 667 235 C667 235.66 667 236.32 667 237 C656.31563078 238.07419152 645.72655709 238.10194194 635 238 C634.67 237.01 634.34 236.02 634 235 C633.04480469 235.02320313 632.08960938 235.04640625 631.10546875 235.0703125 C611.15615634 235.34876751 611.15615634 235.34876751 605.3125 231 C604 229 604 229 604 227 C601.36 227 598.72 227 596 227 C596 227.66 596 228.32 596 229 C593.35261084 230.4606285 592.10551666 231 589 231 C589 231.66 589 232.32 589 233 C582.1834265 234.7879537 576.03482474 235.23668569 569 235 C568.67 235.99 568.34 236.98 568 238 C563.71331312 238.04975174 559.42678303 238.0858847 555.13989258 238.10986328 C553.68413359 238.1198685 552.22839443 238.13347696 550.77270508 238.15087891 C548.6700346 238.17537044 546.56763176 238.18653794 544.46484375 238.1953125 C543.202771 238.20578613 541.94069824 238.21625977 540.64038086 238.22705078 C536.82691104 237.98920443 533.62725423 237.16914946 530 236 C528.66869885 235.65864073 527.33641852 235.32074044 526 235 C526 235.66 526 236.32 526 237 C521.49805052 239.79120868 518.29993054 241.2772822 513 242 C511.515 242.99 511.515 242.99 510 244 C507.99041337 243.36281399 505.99263591 242.68836513 504 242 C496.25412392 240.44240535 488.64534835 241.09977534 481 243 C480.34 243.66 479.68 244.32 479 245 C476.828125 245.34375 476.828125 245.34375 474.25 245.5 C470.96127409 245.73524506 468.98741554 246.00565017 465.9375 247.375 C461.71848428 248.27266292 459.53475981 246.52784778 455.953125 244.359375 C454 243 454 243 452 241 C450.00882592 240.30741771 448.0078864 239.64252365 446 239 C444.65278717 238.36184656 443.31252882 237.70674629 442 237 C442 236.34 442 235.68 442 235 C441.34 235 440.68 235 440 235 C440 234.34 440 233.68 440 233 C439.34 233 438.68 233 438 233 C438 232.01 438 231.02 438 230 C433.58774263 228.52924754 430.51718381 227.63115642 426 229 C426 230.32 426 231.64 426 233 C425.33613281 233.25394531 424.67226563 233.50789062 423.98828125 233.76953125 C418.38570491 235.94024954 418.38570491 235.94024954 413.125 238.8125 C411 240 411 240 409.28515625 239.69921875 C408.53105469 239.46847656 407.77695312 239.23773438 407 239 C405.94425781 238.690625 404.88851563 238.38125 403.80078125 238.0625 C402.64964844 237.711875 401.49851562 237.36125 400.3125 237 C399.15363281 236.649375 397.99476563 236.29875 396.80078125 235.9375 C394 235 394 235 393 234 C391.65252916 233.76924918 390.29622435 233.58846937 388.9375 233.4375 C387.638125 233.293125 386.33875 233.14875 385 233 C385 232.34 385 231.68 385 231 C382.69 230.34 380.38 229.68 378 229 C378 228.34 378 227.68 378 227 C377.360625 226.896875 376.72125 226.79375 376.0625 226.6875 C375.0415625 226.3471875 375.0415625 226.3471875 374 226 C373.67 225.01 373.34 224.02 373 223 C370.91731407 222.91873913 368.83371342 222.86069161 366.75 222.8125 C365.58984375 222.77769531 364.4296875 222.74289063 363.234375 222.70703125 C360.02280672 222.69266087 360.02280672 222.69266087 358.15625 224.51171875 C354.14844194 227.27797757 348.96418725 226.10427883 344.26171875 225.8828125 C338.38621122 225.7152069 334.41684182 226.72516402 329 229 C325.50957681 228.9206722 324.39963939 228.34413392 321.75 226.0625 C320 224 320 224 319 222 C318.01 222 317.02 222 316 222 C315.67 223.32 315.34 224.64 315 226 C313.68 226.33 312.36 226.66 311 227 C311 228.32 311 229.64 311 231 C310.01 231 309.02 231 308 231 C307.67 232.32 307.34 233.64 307 235 C305.02 235 303.04 235 301 235 C300.67 235.99 300.34 236.98 300 238 C298.14375 237.8453125 298.14375 237.8453125 296.25 237.6875 C292.67476315 237.66848278 292.2525585 237.76006943 289.5 240.375 C287.83462035 242.78552327 287.83462035 242.78552327 288 245 C286.92516357 245.02187378 286.92516357 245.02187378 285.82861328 245.04418945 C282.59352017 245.11849 279.35947981 245.21520861 276.125 245.3125 C274.99707031 245.33505859 273.86914062 245.35761719 272.70703125 245.38085938 C271.63066406 245.41630859 270.55429687 245.45175781 269.4453125 245.48828125 C267.95281982 245.52755737 267.95281982 245.52755737 266.43017578 245.56762695 C265.62821777 245.71031006 264.82625977 245.85299316 264 246 C263.34 246.99 262.68 247.98 262 249 C260.02 248.67 258.04 248.34 256 248 C256 248.66 256 249.32 256 250 C253.36 250 250.72 250 248 250 C248 250.99 248 251.98 248 253 C246.68 253 245.36 253 244 253 C243.76539063 252.37609375 243.53078125 251.7521875 243.2890625 251.109375 C241.63176925 248.39744059 240.3858401 248.11024003 237.375 247.25 C236.14910156 246.88648438 236.14910156 246.88648438 234.8984375 246.515625 C234.27195313 246.34546875 233.64546875 246.1753125 233 246 C232.67 244.02 232.34 242.04 232 240 C232.99 239.67 233.98 239.34 235 239 C229.29428977 237.61212454 221.43918756 237.15374343 216.10949707 240.01487732 C213.75167759 241.1159651 212.24880012 241.23714602 209.66210938 241.21118164 C208.81442993 241.20780289 207.96675049 241.20442413 207.09338379 241.20094299 C206.18600464 241.18748337 205.27862549 241.17402374 204.34375 241.16015625 C203.40446655 241.15495468 202.46518311 241.14975311 201.49743652 241.14439392 C198.49813312 241.12659432 195.49917249 241.09542889 192.5 241.0625 C189.50086089 241.03485927 186.50177121 241.01014455 183.50256348 240.99131775 C181.63720316 240.97908775 179.7718685 240.96151069 177.90661621 240.93800354 C177.05893677 240.93147263 176.21125732 240.92494171 175.33789062 240.91821289 C174.59494751 240.90995987 173.85200439 240.90170685 173.08654785 240.89320374 C170.93967439 241.00308766 169.06238349 241.40964764 167 242 C167 242.66 167 243.32 167 244 C160.42518672 245.81085959 154.72305523 246.05356555 148 245 C140.74939364 243.8817558 133.57905654 243.546934 126.921875 247.11328125 C125 248 125 248 121.5 247.4375 C118.06652164 246.61188752 118.06652164 246.61188752 115.9375 248.4375 C114.9784375 249.2109375 114.9784375 249.2109375 114 250 C110.9375 250.375 110.9375 250.375 108 250 C107.55140625 249.52433594 107.1028125 249.04867187 106.640625 248.55859375 C104.48413108 246.50992453 102.70671528 246.28757002 99.8125 245.6875 C94.34220463 244.30721299 89.8561745 242.21704645 86 238 C85.2890625 235.80859375 85.2890625 235.80859375 85 234 C82.69 233.67 80.38 233.34 78 233 C78 232.34 78 231.68 78 231 C76.68 231 75.36 231 74 231 C74 231.66 74 232.32 74 233 C70.73082986 236.75349165 67.2781564 239.57615695 62.3125 240.5 C59.63137811 240.79889882 59.63137811 240.79889882 58 244 C43.15625 240.4375 43.15625 240.4375 38 237 C38 236.34 38 235.68 38 235 C37.34 235 36.68 235 36 235 C36 235.66 36 236.32 36 237 C29.22710722 235.52172941 20.86628239 231.79942359 17 226 C14.87465341 226.14069196 12.74972471 226.28770921 10.625 226.4375 C9.44164062 226.51871094 8.25828125 226.59992188 7.0390625 226.68359375 C4.08481099 226.81084936 4.08481099 226.81084936 2 228 C1.7525 227.01 1.505 226.02 1.25 225 C0.43514998 222.05583389 -0.70321801 219.60304448 -2.1875 216.9375 C-3.63742983 214.12995797 -4 213.02341969 -4 209.75 C-3 207 -3 207 -1 205.0625 C1.73278845 202.24431191 1.70588134 199.82354262 2 196 C2.66 196 3.32 196 4 196 C3.98839844 194.95199219 3.97679687 193.90398437 3.96484375 192.82421875 C3.95546345 191.44531428 3.9463635 190.06640789 3.9375 188.6875 C3.92912109 187.99720703 3.92074219 187.30691406 3.91210938 186.59570312 C3.89692094 183.4516975 3.99806673 181.00579981 5 178 C5.04503205 176.12554085 5.03875141 174.24959951 5 172.375 C4.95040024 166.52222829 4.97151133 160.59294397 6.59375 154.92578125 C7.20572007 152.82772862 7.20572007 152.82772862 6.0625 150.1875 C4.82917804 146.48753412 4.58429262 143.87993551 5 140 C6.33333333 138 7.66666667 136 9 134 C11.23235639 126.31905727 11.23235639 126.31905727 10.015625 118.6953125 C8.84759263 115.59553429 8.7334411 113.1785012 8.75 109.875 C8.74484375 108.84117188 8.7396875 107.80734375 8.734375 106.7421875 C9 104 9 104 11 101 C12.58996333 96.32363728 13.31398952 91.90994993 13.65625 87.015625 C14 85 14 85 16 82 C16.16713569 79.37468476 16.16713569 79.37468476 16 77 C15.01 77 14.02 77 13 77 C12.28582969 75.33360261 11.57192238 73.66709199 10.859375 72 C10.06100468 70.14197452 9.24977573 68.28948866 8.4375 66.4375 C7 63 7 63 6.0625 59.6875 C4.77415726 56.42875072 4.0406526 56.43089534 1 55 C-1.41735738 51.97830327 -2.91155875 50.01707435 -3.25 46.125 C-3.1675 45.42375 -3.085 44.7225 -3 44 C-1.515 43.505 -1.515 43.505 0 43 C0.70211894 41.34795544 1.36971413 39.68076231 2 38 C2.99 37.505 2.99 37.505 4 37 C4.33 36.01 4.66 35.02 5 34 C5.33 33.01 5.66 32.02 6 31 C6.66 30.67 7.32 30.34 8 30 C8 27.69 8 25.38 8 23 C7.34 23 6.68 23 6 23 C5.87882813 22.15695313 5.75765625 21.31390625 5.6328125 20.4453125 C5.46523437 19.34960938 5.29765625 18.25390625 5.125 17.125 C4.96257813 16.03445312 4.80015625 14.94390625 4.6328125 13.8203125 C4.23743487 10.88067286 4.23743487 10.88067286 2 9 C1.34 6.03 0.68 3.06 0 0 Z M315 219 C316 222 316 222 316 222 Z M16 222 C16 222.66 16 223.32 16 224 C16.66 224 17.32 224 18 224 C18 223.34 18 222.68 18 222 C17.34 222 16.68 222 16 222 Z " fill="#F1F2F1" transform="translate(10,0)"/>
<path d="M0 0 C20.79 0 41.58 0 63 0 C63 0.33 63 0.66 63 1 C61.02 1 59.04 1 57 1 C57 1.66 57 2.32 57 3 C51.5118019 3.09761617 46.42178799 2.92567112 41 2 C40.01 2.33 39.02 2.66 38 3 C36.01160961 3 34.02260244 2.99877002 32.03515625 2.9375 C30.02040228 2.91472882 30.02040228 2.91472882 28.23901367 3.51147461 C25.45608835 4.11867487 22.98580835 4.00955242 20.140625 3.87890625 C18.46806641 3.80639648 18.46806641 3.80639648 16.76171875 3.73242188 C15.02341797 3.64831055 15.02341797 3.64831055 13.25 3.5625 C12.07566406 3.51029297 10.90132812 3.45808594 9.69140625 3.40429688 C6.79399336 3.27473776 3.89693507 3.13977553 1 3 C0.67 2.01 0.34 1.02 0 0 Z " fill="#EBF6F8" transform="translate(200,129)"/>
<path d="M0 0 C12.21 0 24.42 0 37 0 C36.67 0.99 36.34 1.98 36 3 C28.41 3 20.82 3 13 3 C13 2.34 13 1.68 13 1 C8.71 1 4.42 1 0 1 C0 0.67 0 0.34 0 0 Z " fill="#EAF6F8" transform="translate(612,129)"/>
<path d="M0 0 C5.19209404 -0.21192221 9.126739 0.4087311 14 2 C14 1.34 14 0.68 14 0 C14.66 0 15.32 0 16 0 C16 0.66 16 1.32 16 2 C19.63 2 23.26 2 27 2 C27 2.33 27 2.66 27 3 C8.19 3 -10.62 3 -30 3 C-30 2.67 -30 2.34 -30 2 C-19.97112823 1.0232751 -10.06604235 0.89150374 0 1 C0 0.67 0 0.34 0 0 Z " fill="#E3F2F3" transform="translate(121,124)"/>
<path d="M0 0 C1.32 0 2.64 0 4 0 C4 0.66 4 1.32 4 2 C4.763125 1.67 5.52625 1.34 6.3125 1 C9 0 9 0 12 0 C12 0.66 12 1.32 12 2 C12.68964844 1.91621094 13.37929687 1.83242187 14.08984375 1.74609375 C20.2993459 1.07318474 25.82141232 1.0884051 32 2 C32 2.33 32 2.66 32 3 C14.18 3 -3.64 3 -22 3 C-17.50375603 0.75187801 -17.50375603 0.75187801 -13.92578125 0.83984375 C-13.17619141 0.85080078 -12.42660156 0.86175781 -11.65429688 0.87304688 C-10.88150391 0.89431641 -10.10871094 0.91558594 -9.3125 0.9375 C-6.53735733 0.99906849 -3.77676133 1.02065604 -1 1 C-0.67 0.67 -0.34 0.34 0 0 Z " fill="#E3F0F1" transform="translate(58,124)"/>
<path d="M0 0 C11.88 0 23.76 0 36 0 C36 0.33 36 0.66 36 1 C23.97574024 2.22823191 12.10035306 3.3716832 0 3 C0 2.01 0 1.02 0 0 Z " fill="#E8F5F6" transform="translate(289,129)"/>
<path d="M0 0 C2.47133827 0.09206504 4.94491714 0.13066961 7.41796875 0.1328125 C8.1164241 0.13376923 8.81487946 0.13472595 9.53450012 0.13571167 C11.00273733 0.13638923 12.47097761 0.13456466 13.93920898 0.13037109 C16.1906602 0.12499245 18.44191412 0.1303428 20.69335938 0.13671875 C22.12239627 0.13605837 23.55143305 0.13477803 24.98046875 0.1328125 C26.27879639 0.13168457 27.57712402 0.13055664 28.91479492 0.12939453 C31.91203112 0.21454326 31.91203112 0.21454326 34 -1 C34 -0.34 34 0.32 34 1 C36.64 1 39.28 1 42 1 C42 1.33 42 1.66 42 2 C24.51 2 7.02 2 -11 2 C-11 1.67 -11 1.34 -11 1 C-6.68566416 -0.70566766 -4.45302622 -0.91576715 0 0 Z " fill="#E2F0F0" transform="translate(806,125)"/>
<path d="M0 0 C1.2065625 0.0309375 1.2065625 0.0309375 2.4375 0.0625 C2.4375 0.3925 2.4375 0.7225 2.4375 1.0625 C10.0275 1.3925 17.6175 1.7225 25.4375 2.0625 C25.4375 2.3925 25.4375 2.7225 25.4375 3.0625 C7.6175 3.0625 -10.2025 3.0625 -28.5625 3.0625 C-24.75127758 1.15688879 -23.617172 0.82325735 -19.61328125 0.90234375 C-18.21819336 0.9187793 -18.21819336 0.9187793 -16.79492188 0.93554688 C-15.83134766 0.95681641 -14.86777344 0.97808594 -13.875 1 C-11.95449938 1.03427199 -10.03391977 1.06444909 -8.11328125 1.08984375 C-6.83964722 1.11679321 -6.83964722 1.11679321 -5.5402832 1.14428711 C-2.89674042 1.0349689 -2.85320439 0.06959035 0 0 Z " fill="#E3F2F3" transform="translate(622.5625,123.9375)"/>
<path d="M0 0 C0.83778992 0.04863693 1.67557983 0.09727386 2.53875732 0.14738464 C5.20929728 0.30588276 7.87779902 0.48661954 10.546875 0.66796875 C12.35928519 0.77946434 14.17178536 0.88950759 15.984375 0.99804688 C20.42309412 1.26702482 24.86011616 1.55595274 29.296875 1.85546875 C29.296875 2.18546875 29.296875 2.51546875 29.296875 2.85546875 C15.436875 2.85546875 1.576875 2.85546875 -12.703125 2.85546875 C-8.02575859 -0.65255606 -5.49787003 -0.40175587 0 0 Z " fill="#E4F1F2" transform="translate(914.703125,124.14453125)"/>
<path d="M0 0 C9.9 0 19.8 0 30 0 C29.01 0.33 28.02 0.66 27 1 C27 1.66 27 2.32 27 3 C25.35 3 23.7 3 22 3 C21.67 3.66 21.34 4.32 21 5 C21 4.34 21 3.68 21 3 C14.07 2.34 7.14 1.68 0 1 C0 0.67 0 0.34 0 0 Z " fill="#EAF5F8" transform="translate(474,129)"/>
<path d="M0 0 C6.75 -0.125 6.75 -0.125 9 1 C10.87056791 1.2275015 12.74685958 1.40962811 14.625 1.5625 C15.62789062 1.64628906 16.63078125 1.73007813 17.6640625 1.81640625 C18.43492187 1.87699219 19.20578125 1.93757813 20 2 C20 2.33 20 2.66 20 3 C11.09 3 2.18 3 -7 3 C-7 2.67 -7 2.34 -7 2 C-4.69 2 -2.38 2 0 2 C0 1.34 0 0.68 0 0 Z " fill="#E8F5F6" transform="translate(215,124)"/>
<path d="M0 0 C1.9453125 -0.29296875 1.9453125 -0.29296875 4.125 -0.1875 C5.40375 -0.125625 6.6825 -0.06375 8 0 C8 0.66 8 1.32 8 2 C12.62 2 17.24 2 22 2 C22 2.33 22 2.66 22 3 C14.08 3 6.16 3 -2 3 C-1.34 2.01 -0.68 1.02 0 0 Z " fill="#E6F3F5" transform="translate(668,124)"/>
<path d="M0 0 C2.97 0 5.94 0 9 0 C9.33 0.66 9.66 1.32 10 2 C11.32 2.66 12.64 3.32 14 4 C9.38 4 4.76 4 0 4 C-0.33 3.34 -0.66 2.68 -1 2 C-0.67 1.34 -0.34 0.68 0 0 Z " fill="#EAF6F6" transform="translate(264,123)"/>
<path d="M0 0 C0 0.33 0 0.66 0 1 C4.29 1.33 8.58 1.66 13 2 C13 2.33 13 2.66 13 3 C4.42 3 -4.16 3 -13 3 C-13 2.67 -13 2.34 -13 2 C-4.57142857 -0.28571429 -4.57142857 -0.28571429 0 0 Z " fill="#E6F4F5" transform="translate(397,124)"/>
<path d="M0 0 C6.93 0 13.86 0 21 0 C18 3 18 3 14.3125 3.1875 C12.6728125 3.0946875 12.6728125 3.0946875 11 3 C11 2.34 11 1.68 11 1 C7.37 1 3.74 1 0 1 C0 0.67 0 0.34 0 0 Z " fill="#E8F5F9" transform="translate(437,129)"/>
<path d="M0 0 C4.95 0 9.9 0 15 0 C10.53050493 3.3521213 9.34862339 3.38204453 4 3 C1.5625 2.5 1.5625 2.5 0 2 C0 1.34 0 0.68 0 0 Z " fill="#EEF7FA" transform="translate(579,215)"/>
<path d="M0 0 C5.94 0 11.88 0 18 0 C18 0.33 18 0.66 18 1 C15.69 1 13.38 1 11 1 C11 1.66 11 2.32 11 3 C5.71910976 3.30466674 4.422832 3.317124 0 0 Z " fill="#E7F4F9" transform="translate(413,129)"/>
</svg>
